<svg width="62mm" height="50mm" version="1.1" viewBox="0 0 62 50" xmlns="http://www.w3.org/2000/svg"><g transform="matrix(1.02 0 0 1.03 -.469 -257)"><g transform="matrix(2,0,0,2,-88.8,51.2)"><g transform="translate(.697 .498)"><path transform="matrix(.13 0 0 .128 43.9 98.2)" d="m199 0.947-176 0.0586c-10.8 0-19.7 9.05-19.7 20.1v135c0 11 8.85 20.1 19.7 20.1h132c-0.167-0.701-0.266-1.55-0.332-2.38-0.407-0.336-0.806-0.681-1.21-1.01 0.014 0.118 0.0224 0.237 0.0371 0.355 0.0153 0.12-0.139-0.441-0.0449-0.363 3e-3 2e-3 5e-3 5e-3 8e-3 8e-3 -0.254-2.15-0.378-4.31-0.145-6.46h-130c-5.61 0-10-4.48-10-10.3v-135c0-5.78 4.39-10.3 10-10.3h176c5.61 0 10 4.48 10 10.3v75.2c2-0.487 3.97-1.29 6.02-1.35 1.26-0.039 2.46 0.0738 3.64 0.262v-74.2c0-11-8.85-20.1-19.7-20.1zm13.4 120c-0.195 5e-3 -0.44 0.0813-0.324 0.135 0.293 0.127 0.592 0.243 0.891 0.361 0.0102-0.0889 0.0178-0.135 0.0273-0.223-0.144-0.0818-0.279-0.18-0.43-0.25l-2e-3 -2e-3c-0.0381-0.0176-0.0971-0.0232-0.162-0.0215zm2.87 1.7c-0.344 0.0818-0.693 0.142-1.04 0.213 0.0218 0.396 0.0487 0.707 0.0723 1.09 0.354-0.414 0.701-0.832 1.06-1.25-0.0303-0.0186-0.0615-0.0343-0.0918-0.0527zm-2.91 0.594l-2e-3 2e-3c1e-3 -2.6e-4 3e-3 2.5e-4 4e-3 0zm-2e-3 2e-3c-0.0903 0.0184-0.179 0.0389-0.27 0.0566-0.224 0.273-0.783 0.673-0.537 0.646 0.353-0.0384 0.62-0.366 0.807-0.703zm-1.83 0.166c-0.336 0.0104-0.668 0.0345-1 0.0488 2e-3 0.0145 2e-3 0.028 4e-3 0.043 0.425-0.0124 0.511 0.0152 0.766-0.0117 0.0787-8e-3 0.156-0.0579 0.234-0.0801zm-53.8 51.1c0.0752 0.117 0.136 0.215 0.205 0.324-0.0291-0.0737-0.0588-0.147-0.0879-0.221-0.038-0.0345-0.0807-0.0691-0.117-0.104zm0.527 1.17c6e-3 0.0109 0.0182 0.037 0.0234 0.0469 8e-3 0.01 0.0119 0.0138 0.0195 0.0234-5e-3 -0.013-0.0105-0.026-0.0156-0.0391-9e-3 -0.01-0.0183-0.0214-0.0273-0.0312z" color="#000000" color-rendering="auto" dominant-baseline="auto" fill="#2b8cb7" image-rendering="auto" shape-rendering="auto" solid-color="#000000" stroke-width="2.05" style="font-feature-settings:normal;font-variant-alternates:normal;font-variant-caps:normal;font-variant-ligatures:normal;font-variant-numeric:normal;font-variant-position:normal;isolation:auto;mix-blend-mode:normal;shape-padding:0;text-decoration-color:#000000;text-decoration-line:none;text-decoration-style:solid;text-indent:0;text-orientation:mixed;text-transform:none;white-space:normal"/><path d="m64.8 122c-0.822-0.164-1.49-0.797-1.7-1.61-0.0533-0.208-0.0553-0.301-0.056-2.65-6.2e-4 -2.36 8.9e-4 -2.44 0.0552-2.65 0.213-0.834 0.875-1.46 1.72-1.62 0.302-0.0581 7.33-0.0574 7.64 6.3e-4 0.839 0.161 1.51 0.788 1.72 1.62 0.0536 0.21 0.0555 0.297 0.0555 2.65s-2e-3 2.44-0.0555 2.65c-0.212 0.829-0.879 1.46-1.72 1.62-0.291 0.0558-7.38 0.0541-7.66-2e-3zm7.53-1.1c0.21-0.0547 0.367-0.15 0.523-0.317 0.159-0.17 0.252-0.368 0.288-0.616 0.0357-0.247 0.0364-4.18 6.2e-4 -4.45-0.0333-0.256-0.125-0.457-0.288-0.632-0.156-0.167-0.313-0.262-0.523-0.317-0.24-0.0624-7.13-0.0624-7.37 0-0.21 0.0547-0.367 0.15-0.523 0.317-0.159 0.17-0.252 0.368-0.288 0.616-0.0369 0.256-0.0369 4.21 0 4.47 0.0661 0.457 0.375 0.817 0.799 0.931 0.225 0.0606 7.15 0.0619 7.38 8.9e-4zm-4.68-1.77c-0.115-0.0354-0.209-0.135-0.209-0.22 0-0.0448 0.101-0.236 0.262-0.493l0.262-0.42-0.0804-0.0846c-0.0442-0.0465-0.116-0.152-0.159-0.235-0.0728-0.14-0.0783-0.173-0.0783-0.466 0-0.301 4e-3 -0.323 0.0877-0.483 0.229-0.438 0.682-0.669 1.15-0.587 0.368 0.064 0.647 0.28 0.812 0.627 0.0786 0.166 0.0867 0.208 0.0865 0.444-2e-4 0.227-0.0101 0.282-0.0767 0.425-0.0421 0.0905-0.114 0.211-0.159 0.268-0.0475 0.0594-0.0741 0.117-0.0628 0.137 0.0107 0.0187 0.123 0.203 0.25 0.409 0.198 0.321 0.229 0.389 0.222 0.477-6e-3 0.0745-0.0297 0.118-0.086 0.16-0.0751 0.0559-0.108 0.0577-1.11 0.0629-0.568 4e-3 -1.07-5e-3 -1.11-0.0191zm-3.07-7.11c-4e-3 -0.411 8.8e-4 -0.871 0.0119-1.02 0.0985-1.41 1.18-2.63 2.6-2.94 0.208-0.0456 0.364-0.0511 1.45-0.0511 1.09 0 1.25 5e-3 1.45 0.0511 1.22 0.267 2.19 1.19 2.52 2.39 0.0719 0.265 0.0732 0.286 0.0831 1.29l0.01 1.02h-2.17l-6.2e-4 -0.692c-5.2e-4 -0.381-0.0129-0.785-0.0275-0.898-0.051-0.393-0.267-0.694-0.624-0.87l-0.209-0.103h-2.06l-0.209 0.103c-0.351 0.173-0.569 0.473-0.623 0.856-0.0151 0.106-0.0277 0.51-0.028 0.898l-5.3e-4 0.706h-2.17z" fill="#f69e00" stroke-width=".0274"/><g transform="translate(-1.62,27.1)" fill="#2b8cb7"><rect x="49.5" y="88.2" width="2.22" height="1.31"/><rect x="52.2" y="87.3" width="2.22" height="2.22"/><rect x="55" y="85.6" width="2.22" height="3.84"/><rect x="57.7" y="83.7" width="2.22" height="5.76"/><rect x="60.5" y="81.5" width="2.22" height="7.98"/></g><g fill="#2b8cb7" stroke-width=".265"><path d="m48.3 105 0.695-0.0675q0.0627 0.35 0.253 0.514 0.193 0.164 0.519 0.164 0.345 0 0.519-0.145 0.176-0.147 0.176-0.343 0-0.125-0.0748-0.212-0.0724-0.0893-0.256-0.154-0.125-0.0434-0.572-0.154-0.574-0.142-0.806-0.35-0.326-0.292-0.326-0.712 0-0.27 0.152-0.504 0.154-0.236 0.441-0.359 0.289-0.123 0.697-0.123 0.666 0 1 0.292 0.338 0.292 0.355 0.779l-0.714 0.0314q-0.0458-0.273-0.198-0.391-0.15-0.121-0.451-0.121-0.311 0-0.487 0.128-0.113 0.082-0.113 0.22 0 0.125 0.106 0.215 0.135 0.113 0.656 0.236 0.521 0.123 0.769 0.256 0.251 0.13 0.391 0.359 0.142 0.227 0.142 0.562 0 0.304-0.169 0.569-0.169 0.265-0.478 0.396-0.309 0.128-0.769 0.128-0.671 0-1.03-0.309-0.359-0.311-0.429-0.905z"/><path d="m51.6 105 0.695-0.0675q0.0627 0.35 0.253 0.514 0.193 0.164 0.519 0.164 0.345 0 0.519-0.145 0.176-0.147 0.176-0.343 0-0.125-0.0748-0.212-0.0724-0.0893-0.256-0.154-0.125-0.0434-0.572-0.154-0.574-0.142-0.806-0.35-0.326-0.292-0.326-0.712 0-0.27 0.152-0.504 0.154-0.236 0.441-0.359 0.289-0.123 0.697-0.123 0.666 0 1 0.292 0.338 0.292 0.355 0.779l-0.714 0.0314q-0.0458-0.273-0.198-0.391-0.15-0.121-0.451-0.121-0.311 0-0.487 0.128-0.113 0.082-0.113 0.22 0 0.125 0.106 0.215 0.135 0.113 0.656 0.236 0.521 0.123 0.769 0.256 0.251 0.13 0.391 0.359 0.142 0.227 0.142 0.562 0 0.304-0.169 0.569-0.169 0.265-0.478 0.396-0.309 0.128-0.769 0.128-0.671 0-1.03-0.309-0.359-0.311-0.429-0.905z"/><path d="m55.1 106v-3.51h0.714v2.91h1.78v0.596z"/><path d="m60.2 106v-2.94h-1.05v-0.598h2.81v0.598h-1.05v2.94z"/><path d="m62.4 106v-3.51h0.714v2.91h1.78v0.596z"/><path d="m65.2 105 0.695-0.0675q0.0627 0.35 0.253 0.514 0.193 0.164 0.519 0.164 0.345 0 0.519-0.145 0.176-0.147 0.176-0.343 0-0.125-0.0748-0.212-0.0724-0.0893-0.256-0.154-0.125-0.0434-0.572-0.154-0.574-0.142-0.806-0.35-0.326-0.292-0.326-0.712 0-0.27 0.152-0.504 0.154-0.236 0.441-0.359 0.289-0.123 0.697-0.123 0.666 0 1 0.292 0.338 0.292 0.355 0.779l-0.714 0.0314q-0.0458-0.273-0.198-0.391-0.15-0.121-0.451-0.121-0.311 0-0.487 0.128-0.113 0.082-0.113 0.22 0 0.125 0.106 0.215 0.135 0.113 0.656 0.236 0.521 0.123 0.769 0.256 0.251 0.13 0.391 0.359 0.142 0.227 0.142 0.562 0 0.304-0.169 0.569-0.169 0.265-0.478 0.396-0.309 0.128-0.769 0.128-0.671 0-1.03-0.309-0.359-0.311-0.429-0.905z"/></g></g></g></g></svg>
